<svg id="Capa_1" enable-background="new 0 0 512 512" height="512" viewBox="0 0 512 512" width="512" xmlns="http://www.w3.org/2000/svg"><g><g><path d="m112.137 483.655-44.91-25.187c-7.291-4.089-9.833-13.345-5.653-20.582l90.875-157.347 71.084 39.866-91.06 157.668c-4.107 7.112-13.172 9.6-20.336 5.582z" fill="#4d5788"/><g><g><path d="m216.454 332.74 165.708 98.444c10.002 5.942 22.671-1.264 22.671-12.895v-376.842c0-11.72-12.843-18.913-22.842-12.792l-165.537 101.346-10.741 99.661z" fill="#f1f1fa"/><path d="m205.973 232.161 10.48 100.579 165.708 98.444c10.002 5.942 22.671-1.264 22.671-12.895v-186.128z" fill="#ded7f9"/></g><g><path d="m89.545 296.868h-61.058c-15.733 0-28.487-12.754-28.487-28.487v-77.439c0-15.733 12.754-28.487 28.487-28.487h61.058z" fill="#667197"/><path d="m0 232.161v36.22c0 15.733 12.758 28.487 28.496 28.487h61.048v-64.707z" fill="#4d5788"/></g><g><path d="m216.454 332.74h-86.908c-28.17-1.708-51.006-24.537-51.006-52.698v-100.76c0-28.161 22.836-50.989 51.006-49.28h86.908z" fill="#e06c6c"/><path d="m78.54 232.161v47.881c0 28.161 22.836 50.989 51.006 52.698h86.908v-100.579z" fill="#c63c50"/></g></g></g><g><path d="m470.72 352.291c-3.84 0-7.68-1.465-10.61-4.394l-30.269-30.259c-5.86-5.857-5.86-15.355 0-21.213 5.859-5.857 15.361-5.857 21.22 0l30.269 30.259c5.86 5.857 5.86 15.355 0 21.213-2.93 2.929-6.77 4.394-10.61 4.394z" fill="#edbe2c"/><path d="m440.45 172.291c-3.841 0-7.68-1.464-10.61-4.393-5.86-5.857-5.86-15.355 0-21.213l30.269-30.259c5.86-5.858 15.36-5.858 21.22 0 5.859 5.857 5.859 15.356 0 21.213l-30.269 30.259c-2.929 2.928-6.77 4.393-10.61 4.393z" fill="#f3d652"/><g><path d="m496.995 247.161h-42.807c-8.287 0-15.005-6.716-15.005-15s6.718-15 15.005-15h42.807c8.287 0 15.005 6.716 15.005 15s-6.718 15-15.005 15z" fill="#f3d652"/><path d="m454.188 247.161h42.807c8.287 0 15.005-6.716 15.005-15h-72.817c0 8.284 6.718 15 15.005 15z" fill="#edbe2c"/></g></g></g></svg>