<svg id="Layer_1" enable-background="new 0 0 512 512" height="512" viewBox="0 0 512 512" width="512" xmlns="http://www.w3.org/2000/svg"><g><path d="m434.964 223.082-174.356-135.768c-2.71-2.11-6.506-2.11-9.216 0l-174.356 135.768c-3.268 2.545-3.854 7.257-1.31 10.525s7.257 3.856 10.525 1.31l169.749-132.18 169.748 132.18c1.37 1.066 2.992 1.583 4.603 1.583 2.234 0 4.444-.994 5.923-2.893 2.544-3.268 1.958-7.98-1.31-10.525z" fill="#be652b"/><path d="m492.418 455h-472.836c-10.815 0-19.582-8.767-19.582-19.582v-191.8c0-10.815 8.767-19.582 19.582-19.582h472.836c10.815 0 19.582 8.767 19.582 19.582v191.8c0 10.815-8.767 19.582-19.582 19.582z" fill="#f3f3f3"/><path d="m492.427 224.036h-30.905c10.81 0 19.573 8.771 19.573 19.591v191.782c0 10.82-8.763 19.591-19.573 19.591h30.905c10.81 0 19.573-8.771 19.573-19.591v-191.782c0-10.82-8.763-19.591-19.573-19.591z" fill="#e4e4e4"/><path d="m30.905 419.945v-160.854c0-2.277 1.846-4.123 4.123-4.123h441.944c2.277 0 4.123 1.846 4.123 4.123v160.853c0 2.277-1.846 4.123-4.123 4.123h-441.944c-2.277 0-4.123-1.845-4.123-4.122z" fill="#f75632"/><path d="m476.974 254.969h-30.905c2.276 0 4.121 1.846 4.121 4.124v160.85c0 2.278-1.845 4.124-4.121 4.124h30.905c2.276 0 4.121-1.847 4.121-4.124v-160.85c0-2.278-1.845-4.124-4.121-4.124z" fill="#e33629"/><g fill="#f3f3f3"><path d="m171.334 361.294h-.043c-4.602.026-9.532.044-13.408.049v-52.329c0-4.142-3.358-7.5-7.5-7.5s-7.5 3.358-7.5 7.5v59.779c0 3.653 2.632 6.775 6.233 7.392.533.091.943.162 7.615.162 3.203 0 7.849-.017 14.644-.054 4.142-.023 7.481-3.4 7.458-7.542-.022-4.127-3.376-7.457-7.499-7.457z"/><path d="m377.362 317.061c4.142 0 7.5-3.358 7.5-7.5s-3.358-7.5-7.5-7.5h-24.98c-4.142 0-7.5 3.358-7.5 7.5v59.283c0 4.142 3.358 7.5 7.5 7.5h24.98c4.142 0 7.5-3.358 7.5-7.5s-3.358-7.5-7.5-7.5h-17.48v-14.642h15.638c4.142 0 7.5-3.358 7.5-7.5s-3.358-7.5-7.5-7.5h-15.638v-14.642h17.48z"/><path d="m419.1 303.285h-16.444c-1.992 0-3.901.792-5.308 2.202s-2.196 3.321-2.192 5.313v.044.002 57.057c0 .497.051.982.143 1.452.124 1.812.893 3.526 2.191 4.813 1.405 1.395 3.305 2.177 5.284 2.177h.028c.497-.002 12.223-.047 16.91-.128 17.577-.307 30.334-15.616 30.334-36.401 0-21.851-12.436-36.531-30.946-36.531zm.351 57.933c-2.119.037-5.821.067-9.202.088-.022-6.849-.05-16.626-.05-21.555 0-4.124-.016-14.338-.028-21.466h8.93c15.178 0 15.946 17.935 15.946 21.53-.001 10.518-4.823 21.215-15.596 21.403z"/><path d="m123.036 354.654c-3.172-2.662-7.902-2.249-10.566.924-.523.624-1.085 1.204-1.671 1.726-3.011 2.681-6.856 4.041-11.43 4.041-12.36 0-22.415-10.055-22.415-22.415s10.055-22.415 22.415-22.415c4.493 0 8.825 1.322 12.527 3.824 3.433 2.319 8.094 1.417 10.414-2.016 2.319-3.433 1.416-8.095-2.016-10.414-6.192-4.183-13.427-6.394-20.924-6.394-20.631 0-37.415 16.784-37.415 37.415 0 20.63 16.784 37.415 37.415 37.415 8.246 0 15.647-2.71 21.406-7.839 1.125-1.002 2.197-2.107 3.185-3.285 2.662-3.173 2.248-7.904-.925-10.567z"/><path d="m310.638 332.365c-7.345-2.709-14.184-5.66-16.287-6.581-1.618-1.303-1.563-3.116-1.455-3.872.151-1.052.915-3.623 4.744-4.776 8.419-2.535 16.229 3.628 16.446 3.803 3.169 2.628 7.874 2.21 10.528-.948 2.665-3.171 2.255-7.902-.916-10.567-.565-.475-14.029-11.581-30.385-6.65-8.268 2.491-14.117 9.007-15.265 17.007-1.078 7.507 2.176 14.728 8.492 18.845.332.216.679.405 1.041.566.346.155 8.586 3.822 17.866 7.246 2.618.966 8.622 3.69 7.831 8.121-.596 3.335-4.66 6.785-10.431 6.785-5.94 0-11.657-2.395-15.292-6.405-2.781-3.068-7.524-3.302-10.594-.521-3.069 2.782-3.302 7.525-.521 10.594 6.431 7.096 16.302 11.332 26.407 11.332 12.619 0 23.216-8.053 25.197-19.148 1.491-8.351-2.298-19.259-17.406-24.831z"/><path d="m226.057 301.515c-20.631 0-37.415 16.784-37.415 37.415 0 20.63 16.784 37.415 37.415 37.415 20.63 0 37.415-16.784 37.415-37.415s-16.785-37.415-37.415-37.415zm0 59.829c-12.36 0-22.415-10.055-22.415-22.415s10.055-22.415 22.415-22.415c12.359 0 22.415 10.055 22.415 22.415s-10.055 22.415-22.415 22.415z"/></g><ellipse cx="256" cy="93.088" fill="#ffd54f" rx="36.056" ry="36.088"/><path d="m256 57c-5.531 0-10.769 1.25-15.453 3.478 12.181 5.792 20.604 18.215 20.604 32.61s-8.423 26.818-20.604 32.61c4.684 2.228 9.922 3.478 15.453 3.478 19.913 0 36.056-16.157 36.056-36.088s-16.143-36.088-36.056-36.088z" fill="#ffc328"/></g></svg>