<svg id="Capa_1" enable-background="new 0 0 511.991 511.991" height="512" viewBox="0 0 511.991 511.991" width="512" xmlns="http://www.w3.org/2000/svg"><g><g><path d="m246.308 470.899h-228.813c-5.523 0-10-4.477-10-10v-364.146c0-5.523 4.477-10 10-10h228.812c5.523 0 10 4.477 10 10v364.145c.001 5.523-4.477 10.001-9.999 10.001z" fill="#e1ebf0"/><path d="m256.305 96.75v339.52c0 5.523-4.477 10-10 10h-204.33c-5.523 0-10-4.477-10-10v-339.52c0-5.523 4.477-10 10-10h204.33c5.523 0 10 4.477 10 10z" fill="#d2e4e7"/><path d="m325.841 431.272h-268.87c-5.523 0-10-4.477-10-10v-364.145c0-5.523 4.477-10 10-10h268.87c5.523 0 10 4.477 10 10v364.145c0 5.523-4.477 10-10 10z" fill="#e1ebf0"/><path d="m335.845 57.13v339.52c0 5.523-4.477 10-10 10h-244.4c-5.523 0-10-4.477-10-10v-339.52c0-5.523 4.477-10 10-10h244.4c5.523 0 10 4.477 10 10z" fill="#d2e4e7"/><path d="m86.445 381.65v-364.15c0-5.523 4.477-10 10-10h268.87c5.523 0 10 4.477 10 10v364.15c0 5.523-4.477 10-10 10h-268.87c-5.522 0-10-4.477-10-10z" fill="#e1ebf0"/><path d="m258.638 142.697h79.169c2.761 0 5-2.239 5-5v-79.51c0-2.761-2.239-5-5-5h-79.169c-2.761 0-5 2.239-5 5v79.51c0 2.761 2.239 5 5 5z" fill="#f3d332"/><path d="m278.635 142.7h-20c-2.76 0-5-2.24-5-5v-79.51c0-2.76 2.24-5 5-5h20c-2.76 0-5 2.24-5 5v79.51c0 2.76 2.24 5 5 5z" fill="#ecc52e"/><g><path d="m221.129 138.075h-102.173c-4.143 0-7.5-3.357-7.5-7.5s3.357-7.5 7.5-7.5h102.173c4.143 0 7.5 3.357 7.5 7.5s-3.357 7.5-7.5 7.5z" fill="#b4d2d7"/></g><g><path d="m282.432 201.479h-103.101c-4.143 0-7.5-3.357-7.5-7.5s3.357-7.5 7.5-7.5h103.101c4.143 0 7.5 3.357 7.5 7.5s-3.358 7.5-7.5 7.5z" fill="#b4d2d7"/></g><g><path d="m221.129 105.442h-102.173c-4.143 0-7.5-3.357-7.5-7.5s3.357-7.5 7.5-7.5h102.173c4.143 0 7.5 3.357 7.5 7.5s-3.357 7.5-7.5 7.5z" fill="#b4d2d7"/></g><g><path d="m221.129 72.809h-102.173c-4.143 0-7.5-3.357-7.5-7.5s3.357-7.5 7.5-7.5h102.173c4.143 0 7.5 3.357 7.5 7.5s-3.357 7.5-7.5 7.5z" fill="#b4d2d7"/></g><g><path d="m272.812 284.461h-153.856c-4.143 0-7.5-3.357-7.5-7.5s3.357-7.5 7.5-7.5h153.855c4.143 0 7.5 3.357 7.5 7.5s-3.357 7.5-7.499 7.5z" fill="#b4d2d7"/></g><g><path d="m240.634 242.504h-121.678c-4.143 0-7.5-3.357-7.5-7.5s3.357-7.5 7.5-7.5h121.678c4.143 0 7.5 3.357 7.5 7.5s-3.357 7.5-7.5 7.5z" fill="#b4d2d7"/></g><g><path d="m343.272 242.504h-70.128c-4.143 0-7.5-3.357-7.5-7.5s3.357-7.5 7.5-7.5h70.128c4.143 0 7.5 3.357 7.5 7.5s-3.358 7.5-7.5 7.5z" fill="#b4d2d7"/></g><path d="m402.465 328.24c5.523 0 10 4.477 10 10v6.79c0 25.74-20.79 46.62-46.44 46.62l-151.626 5-82.444-5c25.65 0 46.45-20.88 46.45-46.62v-6.79c0-5.523 4.477-10 10-10z" fill="#d2e4e7"/><path d="m375.315 264.77v63.47h-104.22c18.03-38.43 56.89-63.56 99.91-63.56 1.44 0 2.88.03 4.31.09z" fill="#d2e4e7"/><path d="m335.845 328.24v68.41c0 5.52-4.48 10-10 10h-60.72c-1.12-3.78-2.03-7.64-2.74-11.58-1.16-6.4-1.76-13-1.76-19.73 0-12.59 2.09-24.95 6.23-36.74 1.25-3.55 2.66-7 4.24-10.36z" fill="#b4d2d7"/><path d="m447.212 424.094 50.765 45.171c8.414 8.297 8.723 21.523.69 29.483-8.022 7.949-21.31 7.618-29.64-.739l-50.705-45.414z" fill="#f3d332"/><path d="m462.275 437.5c-7.67 11.29-17.38 21.09-28.58 28.86l-15.37-13.76 28.89-28.51z" fill="#ecc52e"/><path d="m335.845 396.65v24.62c0 5.52-4.48 10-10 10h-50.05c-4.51-7.66-8.11-15.92-10.67-24.62h60.72c5.52 0 10-4.48 10-10z" fill="#d2e4e7"/><path d="m280.622 375.342c0-10.558 1.799-20.694 5.107-30.118 12.378-35.265 45.883-60.541 85.272-60.541 49.915 0 90.379 40.589 90.379 90.658s-40.464 90.659-90.379 90.659-90.379-40.589-90.379-90.658z" fill="#3a67c1"/><path d="m440.235 433.6c-16.56 19.81-41.43 32.4-69.23 32.4-49.92 0-90.38-40.59-90.38-90.66 0-10.56 1.8-20.69 5.1-30.12 6.12-17.43 17.41-32.42 32.02-43.12-6.91 8.25-12.38 17.75-16.02 28.12-3.3 9.43-5.1 19.56-5.1 30.12 0 50.07 40.46 90.66 90.38 90.66 19.9 0 38.3-6.46 53.23-17.4z" fill="#30569f"/><path d="m314.572 375.342c0-6.592 1.123-12.921 3.189-18.804 7.729-22.018 28.647-37.799 53.24-37.799 31.165 0 56.429 25.342 56.429 56.603s-25.264 56.603-56.429 56.603-56.429-25.342-56.429-56.603z" fill="#e1ebf0"/><path d="m419.575 404.15c-9.82 16.64-27.9 27.79-48.57 27.79-31.17 0-56.43-25.34-56.43-56.6 0-6.59 1.12-12.92 3.19-18.8 4.45-12.68 13.27-23.29 24.66-30.01-1.87 3.15-3.43 6.5-4.66 10.01-2.07 5.88-3.19 12.21-3.19 18.8 0 31.26 25.26 56.6 56.43 56.6 10.43 0 20.19-2.84 28.57-7.79z" fill="#d2e4e7"/></g><g><path d="m258.665 150.196h79.169c6.893 0 12.5-5.607 12.5-12.5v-79.508c0-6.893-5.607-12.5-12.5-12.5h-79.169c-6.893 0-12.5 5.607-12.5 12.5v18.812c0 4.143 3.357 7.5 7.5 7.5s7.5-3.357 7.5-7.5v-16.312h74.169v74.509h-74.169v-22.111c0-4.143-3.357-7.5-7.5-7.5s-7.5 3.357-7.5 7.5v24.611c0 6.892 5.607 12.499 12.5 12.499z"/><path d="m118.983 138.075h102.173c4.143 0 7.5-3.357 7.5-7.5s-3.357-7.5-7.5-7.5h-102.173c-4.143 0-7.5 3.357-7.5 7.5s3.358 7.5 7.5 7.5z"/><path d="m289.959 193.979c0-4.143-3.357-7.5-7.5-7.5h-103.101c-4.143 0-7.5 3.357-7.5 7.5s3.357 7.5 7.5 7.5h103.101c4.142 0 7.5-3.358 7.5-7.5z"/><path d="m118.983 105.442h102.173c4.143 0 7.5-3.357 7.5-7.5s-3.357-7.5-7.5-7.5h-102.173c-4.143 0-7.5 3.357-7.5 7.5s3.358 7.5 7.5 7.5z"/><path d="m118.983 72.809h102.173c4.143 0 7.5-3.357 7.5-7.5s-3.357-7.5-7.5-7.5h-102.173c-4.143 0-7.5 3.357-7.5 7.5s3.358 7.5 7.5 7.5z"/><path d="m118.983 284.461h153.855c4.143 0 7.5-3.357 7.5-7.5s-3.357-7.5-7.5-7.5h-153.855c-4.143 0-7.5 3.357-7.5 7.5s3.358 7.5 7.5 7.5z"/><path d="m118.983 242.504h121.678c4.143 0 7.5-3.357 7.5-7.5s-3.357-7.5-7.5-7.5h-121.678c-4.143 0-7.5 3.357-7.5 7.5s3.358 7.5 7.5 7.5z"/><path d="m343.299 227.504h-70.128c-4.143 0-7.5 3.357-7.5 7.5s3.357 7.5 7.5 7.5h70.128c4.143 0 7.5-3.357 7.5-7.5s-3.358-7.5-7.5-7.5z"/><path d="m503.269 463.925c-.091-.09-.185-.177-.28-.262l-46.153-41.067c7.292-13.286 11.454-28.173 12.007-43.689.147-4.14-3.089-7.615-7.228-7.763-4.147-.123-7.614 3.089-7.763 7.228-1.136 44.18-38.556 80.57-82.825 80.128-45.7 0-82.88-37.305-82.88-83.158-.693-44.937 38.003-83.794 82.88-83.158 34.96 0 66.338 22.185 78.081 55.203 1.388 3.902 5.681 5.944 9.579 4.554 3.903-1.388 5.941-5.677 4.554-9.579-12.527-35.224-43.989-59.998-80.398-64.452v-265.41c0-6.893-5.607-12.5-12.5-12.5h-278.87c-6.893 0-12.5 5.607-12.5 12.5v27.127h-26.975c-6.893 0-12.5 5.607-12.5 12.5v27.126h-26.976c-6.893 0-12.5 5.607-12.5 12.5v374.146c0 6.893 5.607 12.5 12.5 12.5h238.813c6.893 0 12.5-5.607 12.5-12.5v-27.127h32.559c17.968 21.23 44.757 34.729 74.634 34.729 16.418 0 32.268-4.059 46.371-11.685l46.504 41.65c11.058 10.955 28.975 11.56 40.07.61 11.103-10.611 10.432-29.656-.704-40.151zm-409.296-448.925h273.87v262.247c-31.876 1.039-60.843 17.613-78.154 43.496h-30.452c-4.143 0-7.5 3.357-7.5 7.5s3.357 7.5 7.5 7.5h22.206c-1.004 2.284-1.929 4.615-2.765 6.997-3.67 10.455-5.53 21.425-5.53 32.602 0 2.968.14 5.902.398 8.804h-104.342c10.294-9.862 16.726-23.747 16.726-39.12v-9.282h40.799c4.143 0 7.5-3.357 7.5-7.5s-3.357-7.5-7.5-7.5h-48.299c-4.143 0-7.5 3.357-7.5 7.5v16.782c0 21.571-17.47 39.12-38.942 39.12h-38.015zm-39.475 408.771v-102.521c0-4.143-3.357-7.5-7.5-7.5s-7.5 3.357-7.5 7.5v105.021c0 6.893 5.607 12.5 12.5 12.5h196.837v24.627h-233.813v-369.145h24.476v195.296c0 4.143 3.357 7.5 7.5 7.5s7.5-3.357 7.5-7.5v-234.922h24.476v337.019c0 4.143 3.357 7.5 7.5 7.5h189.591c2.176 8.727 5.517 16.995 9.852 24.626h-231.419zm438.917 69.65c-5.19 5.174-13.994 4.646-19.357-.998l-43.618-39.066c6.733-5.158 12.942-11.356 18.106-18.061l44.315 39.433c5.114 4.924 5.707 13.729.554 18.692z"/><path d="m371.028 311.238c-34.608-.493-64.456 29.462-63.93 64.104 0 35.347 28.679 64.103 63.93 64.103 35.25 0 63.929-28.756 63.929-64.103s-28.679-64.104-63.929-64.104zm0 113.206c-26.979 0-48.93-22.027-48.93-49.103-.41-26.532 22.436-49.479 48.93-49.104 26.979 0 48.929 22.027 48.929 49.104 0 27.076-21.949 49.103-48.929 49.103z"/></g></g></svg>