<svg xmlns="http://www.w3.org/2000/svg" xmlns:xlink="http://www.w3.org/1999/xlink" id="Capa_1" x="0" y="0" version="1.1" viewBox="0 0 386 386" xml:space="preserve" style="enable-background:new 0 0 386 386"><g><path style="fill:#fff" d="M293.2,284.6c0,4,0,6.8,0,8c0,3.2-0.8,6-2.4,7.6c-1.6,2-4,2.8-7.6,2.8c-3.2,0-6-0.8-7.6-2.4 c-2-1.6-2.8-4-3.2-6.8l0,0c0-1.2,0-5.2,0-11.2c0-4.8,0-10.8,0-17.6l0,0v-26.4v-14l0,0c0-1.6,0.4-2.8,1.2-4l0,0 c0.8-1.2,1.6-2,3.2-2.8l0,0c2.4-1.6,5.2-2.4,8-2.4c1.2,0,2.4,0,3.6,0.4s2,0.8,2.8,1.6c0.8,0.4,1.6,1.2,2.4,2.4l0,0 c0.8,0.8,1.6,2,2.4,3.2l0,0l27.2,38l0,0l2.8,4c0-5.2,0-10,0-14l0,0l-0.4-23.6l0,0c0-2,0.4-3.6,0.4-4.8c0.4-1.6,1.2-2.8,2-3.6 c0.8-0.8,2-1.6,3.6-2c1.2-0.4,2.8-0.8,4.8-0.8c6.8,0,10,3.6,10,10.4v41.6l0,0v3.2v6.4c0,6,0,11.6,0,16.4c0,1.6-0.4,2.8-0.8,4 c-0.8,1.2-1.6,2.4-2.8,3.2l0,0c-2.4,1.6-5.2,2.4-8.4,2.4c-1.2,0-2.4,0-3.6-0.4l0,0c-1.2-0.4-2-0.8-2.8-1.6 c-0.8-0.8-1.6-1.2-2.4-2.4c-0.8-0.8-1.6-2-2.4-3.2l0,0l-30.8-44c0,1.2,0,2.4,0,4c0,4,0,9.2,0,14.8 C293.2,276.2,293.2,281,293.2,284.6z M205.6,239c0-5.6,0-10,0-14l0,0c0-1.6,0.4-2.8,0.8-4s1.6-2.4,2.4-3.2c2-1.6,4.8-2.4,7.6-2.4 h4.8c8,0,14.8,0,20.8,0h7.2l0,0h3.2l0,0c1.2,0,2.8,0,3.6,0.4c1.2,0.4,2,1.2,3.2,2l0,0c0.8,0.8,1.6,1.6,2,2.8l0,0 c0.4,1.2,0.8,2,0.8,3.6l0,0c0,2.4-0.4,4.4-1.2,6c-0.8,1.6-2.4,2.8-4.4,3.6H256c-0.8,0-3.6,0.4-8.4,0.4s-11.2,0-19.2,0H226v6.4l0,0 l-0.4,10h2c6.8,0,12.8,0,18-0.4l0,0c1.6,0,3.2,0,4.4,0.4c1.2,0.4,2.4,0.8,3.6,1.2c2,1.2,3.2,4,2.8,7.6l0,0c0,2.8-0.8,5.2-2.8,6.8 c-1.6,1.6-4,2.4-6.8,2.4h-21.6c0,1.2,0,2.8,0,4.8v10.4c4.4,0,8.4,0,11.2,0c4,0,7.2,0,10.4,0l0,0c1.2,0,2.4,0,4,0s2.8,0,3.6,0 c2.8,0,4.8,0.8,6.4,2.4s2,4,2,6.8c0,3.2-0.8,5.6-2.4,7.2s-4,2.8-7.2,2.8l0,0h-33.6c-2.4,0-4.8,0-6.4-0.4c-2-0.4-3.6-0.8-4.4-1.6 c-1.2-0.8-2.4-2-2.8-3.2l0,0c-0.8-1.2-1.2-2.8-1.2-4.8l0,0c0-0.8,0-1.6,0-2.4s0-1.6,0-2l0,0V287l0,0v-4c0-1.6,0-3.6,0-6s0-4.8,0-8 c0-5.6,0-10.8,0-16.4v-6L205.6,239z M154.8,239.4c0,4.4,0,8,0,10.8c0,1.2,0,2.4,0,4v2h3.6l0,0c2.8,0,4.8,0,6.8,0s3.2-0.4,4.4-0.8 l0,0c2-0.4,4-2,5.2-4c0.8-1.2,1.2-2.4,1.6-3.6c0.4-1.2,0.4-2.4,0.8-3.6c0-2.4-0.4-4-1.2-5.6s-2.4-2.8-4-3.6l0,0 c-2-1.2-5.2-1.6-9.2-1.6c-3.2,0-5.2,0-6.4,0h-1.6v0.4L154.8,239.4z M133.6,294.2c0-6,0-20.4,0.4-42.8l0,0c0-1.2,0-2,0-3.2 c0-1.6,0-3.2,0-5.6c0-4.8,0-7.6,0-8.4c0-0.4,0-0.8,0-1.2v-1.6c0-0.8,0-1.2,0-1.6v-1.2c0-0.4,0-0.8,0-1.2c0-0.4,0-1.2,0-1.6 c0-1.2,0.4-2,0.4-3.2l0,0c1.6-4.4,4.8-6.8,9.6-7.2l0,0c0.4,0,2.4,0,5.6,0c3.2,0,7.2,0,12.8-0.4l0,0c4.4,0,8.8,0.4,12.4,1.2 c4,0.8,7.6,2.4,10.8,4.4l0,0c4.4,2.8,7.2,6,9.2,10.4l0,0c2,4,2.8,8.8,2.8,14.4c0,3.2-0.8,6.4-1.6,9.6c-1.2,3.2-2.8,6-4.8,8.8 c-2,2.8-4.4,5.2-7.2,6.8c-2.8,1.6-5.6,3.2-8.8,3.6l0,0c-1.6,0.4-3.6,0.4-6.8,0.8c-2.8,0-6.4,0.4-10.8,0.4h-3.2c0,0.8,0,1.6,0,2.4 c0,2,0,4,0,6c0,4.8,0,8.4,0,10c0,3.2-0.8,5.6-2.8,7.2s-4.4,2.4-8,2.4C137.2,303,133.6,300.2,133.6,294.2z M102,268.2 c1.2-2.8,1.6-6,1.6-9.6l0,0c0-3.6-0.8-6.8-1.6-10c-1.2-3.2-3.2-5.6-5.2-7.6l0,0c-2.4-2.4-4.8-4-7.2-4.8c-2.8-1.2-5.6-1.6-8.8-1.6 c-6,0-10.8,2.4-14.8,7.2c-2,2.4-3.6,5.2-4.4,8l0,0c-1.2,3.2-1.6,6.4-1.6,10.4c0,3.6,0.4,7.2,1.6,10s2.8,5.6,4.8,7.6 c2,2.4,4.4,4,7.2,4.8c2.4,1.2,5.6,1.6,8.8,1.6c6,0,10.8-2.4,15.2-7.6C99.2,273.8,100.8,271,102,268.2z M52,227.4L52,227.4 c8.8-8.8,18.8-12.8,29.6-12.8l0,0c6,0,11.2,1.2,16.4,3.2s9.6,5.2,14,9.2c8.4,8.4,12.8,18.8,12.8,31.2c0,6.4-1.2,12-3.2,17.6 c-2,5.2-5.2,10.4-9.2,14.8s-8.8,7.6-14,10s-10.8,3.2-16.8,3.2c-5.6,0-10.8-0.8-16-2.8c-4.8-2-9.6-4.8-14-8.8 c-8.4-8-12.8-18.4-12.8-30.8c0-6.8,1.2-12.8,3.2-18.4C44.4,236.6,47.6,231.8,52,227.4z"/><g><path style="fill:#f16a73" d="M272.4,282.6V265v-26.4v-14l0,0c0-1.6,0.4-2.8,1.2-4c0.8-1.2,1.6-2,3.2-2.8c2.4-1.6,5.2-2.4,8-2.4 c1.2,0,2.4,0,3.6,0.4s2,0.8,2.8,1.6c0.8,0.4,1.6,1.2,2.4,2.4c0.8,0.8,1.6,2,2.4,3.2l0,0l27.2,38l0,0l2.8,4c0-5.2,0-10,0-14 l-0.4-23.6l0,0c0-2,0.4-3.6,0.4-4.8c0.4-1.6,1.2-2.8,2-3.6c0.8-0.8,2-1.6,3.6-2c1.2-0.4,2.8-0.8,4.8-0.8c6.8,0,10,3.6,10,10.4 v41.6v3.2v6.4v16.4c0,1.6-0.4,2.8-0.8,4c-0.8,1.2-1.6,2.4-2.8,3.2c-2.4,1.6-5.2,2.4-8.4,2.4c-1.2,0-2.4,0-3.6-0.4s-2-0.8-2.8-1.6 c-0.8-0.8-1.6-1.2-2.4-2.4c-0.8-0.8-1.6-2-2.4-3.2l-30.8-44c0,1.2,0,2.4,0,4V271v14v8c0,3.2-0.8,6-2.4,7.6c-1.6,2-4,2.8-7.6,2.8 c-3.2,0-6-0.8-7.6-2.4c-2-1.6-2.8-4-3.2-6.8l0,0L272.4,282.6z M205.6,269.4c0-5.6,0-10.8,0-16.4v-6v-8.4v-14l0,0 c0-1.6,0.4-2.8,0.8-4s1.6-2.4,2.4-3.2c2-1.6,4.8-2.4,7.6-2.4h4.8c8,0,14.8,0,20.8,0h7.2h3.2l0,0c1.2,0,2.8,0,3.6,0.4 c1.2,0.4,2,1.2,3.2,2c0.8,0.8,1.6,1.6,2,2.8c0.4,1.2,0.8,2,0.8,3.6c0,2.4-0.4,4.4-1.2,6c-0.8,1.6-2.4,2.8-4.4,3.6H256 c-0.8,0-3.6,0.4-8.4,0.4s-11.2,0-19.2,0H226v6.4l0,0l-0.4,10h2c6.8,0,12.8,0,18-0.4l0,0c1.6,0,3.2,0,4.4,0.4 c1.2,0.4,2.4,0.8,3.6,1.2c2,1.2,3.2,4,2.8,7.6l0,0c0,2.8-0.8,5.2-2.8,6.8c-1.6,1.6-4,2.4-6.8,2.4h-21.6v4.8v10.4h11.2 c4,0,7.2,0,10.4,0l0,0h4h3.6c2.8,0,4.8,0.8,6.4,2.4s2,4,2,6.8c0,3.2-0.8,5.6-2.4,7.2s-4,2.8-7.2,2.8l0,0h-33.6 c-2.4,0-4.8,0-6.4-0.4c-2-0.4-3.6-0.8-4.4-1.6c-1.2-0.8-2.4-2-2.8-3.2c-0.8-1.2-1.2-2.8-1.2-4.8v-2.4c0-0.8,0-1.6,0-2v-1.6v-4v-6 L205.6,269.4z M133.6,227.4v-1.6c0-1.2,0.4-2,0.4-3.2c1.6-4.4,4.8-6.8,9.6-7.2l0,0h5.6L162,215c4.4,0,8.8,0.4,12.4,1.2 c4,0.8,7.6,2.4,10.8,4.4c4.4,2.8,7.2,6,9.2,10.4c2,4,2.8,8.8,2.8,14.4c0,3.2-0.8,6.4-1.6,9.6c-1.2,3.2-2.8,6-4.8,8.8 s-4.4,5.2-7.2,6.8c-2.8,1.6-5.6,3.2-8.8,3.6l0,0c-1.6,0.4-3.6,0.4-6.8,0.8c-2.8,0-6.4,0.4-10.8,0.4H154v2.4v6v10 c0,3.2-0.8,5.6-2.8,7.2s-4.4,2.4-8,2.4c-6.8,0-10.4-2.8-10.4-8.8s0-20.4,0.4-42.8v-3.2V243v-8.4v-1.2v-1.6v-1.6V229L133.6,227.4z M52,227.4c8.8-8.8,18.8-12.8,29.6-12.8c6,0,11.2,1.2,16.4,3.2s9.6,5.2,14,9.2c8.4,8.4,12.8,18.8,12.8,31.2c0,6.4-1.2,12-3.2,17.6 c-2,5.2-5.2,10.4-9.2,14.8s-8.8,7.6-14,10s-10.8,3.2-16.8,3.2c-5.6,0-10.8-0.8-16-2.8c-4.8-2-9.6-4.8-14-8.8 c-8.4-8-12.8-18.4-12.8-30.8c0-6.8,1.2-12.8,3.2-18.4C44.4,236.6,47.6,231.8,52,227.4z M19.6,173.8v170.4c0,1.2,0.4,2.4,1.2,3.2 c0.8,0.8,2,1.2,3.2,1.2h337.2c1.2,0,2.4-0.4,3.2-1.2l0,0c0.8-0.8,1.2-2,1.2-3.2V173.8c0-1.2-0.4-2.4-1.2-3.2l0,0 c-0.8-0.8-2-1.2-3.2-1.2H24c-1.2,0-2.4,0.4-3.2,1.2l0,0C20.4,171.4,19.6,172.6,19.6,173.8z"/><path style="fill:#f16a73" d="M66,241.4c-2,2.4-3.6,5.2-4.4,8c-1.2,3.2-1.6,6.4-1.6,10.4c0,3.6,0.4,7.2,1.6,10s2.8,5.6,4.8,7.6 c2,2.4,4.4,4,7.2,4.8c2.4,1.2,5.6,1.6,8.8,1.6c6,0,10.8-2.4,15.2-7.6c2-2.4,3.6-5.2,4.8-8.4c1.2-2.8,1.6-6,1.6-9.6 s-0.8-6.8-1.6-10c-1.6-2.8-3.6-5.2-5.6-7.2c-2.4-2.4-4.8-4-7.2-4.8c-2.8-1.2-5.6-1.6-8.8-1.6C74.8,234.2,70,236.6,66,241.4z"/><path style="fill:#f16a73" d="M154.8,239.4c0,4.4,0,8,0,10.8v4v2h3.6l0,0c2.8,0,4.8,0,6.8,0s3.2-0.4,4.4-0.8l0,0c2-0.4,4-2,5.2-4 c0.8-1.2,1.2-2.4,1.6-3.6c0.4-1.2,0.4-2.4,0.8-3.6c0-2.4-0.4-4-1.2-5.6s-2.4-2.8-4-3.6l0,0c-2-1.2-5.2-1.6-9.2-1.6h-6.4h-1.6v0.4 L154.8,239.4z"/></g><path style="fill:#ffe749" d="M192.8,66.6c4,0,7.6-1.6,10-4l0.4-0.4c2.8-2.8,4.4-6.4,4.4-10.4s-1.6-7.6-4.4-10.4 s-6.4-4.4-10.4-4.4s-7.6,1.6-10.4,4.4c-2.8,2.8-4.4,6.4-4.4,10.4s1.6,7.6,4.4,10.4l0,0l0,0C185.2,65,188.8,66.6,192.8,66.6z"/></g><path style="fill:#983c2a" d="M378.8,156.6c-4.4-4.4-10.4-7.2-17.2-7.2h-36.8L227.2,47.8c-0.8-8-4.4-14.8-10-20.4	c-6.4-6.4-14.8-10-24.4-10s-18.4,4-24.4,10c-5.2,5.2-8.8,12.4-10,20.4L60.8,149.4H24.4c-6.8,0-12.8,2.8-17.2,7.2l0,0l0,0l0,0	C2.8,161,0,167,0,173.8v170.4c0,6.8,2.8,12.8,7.2,17.2c4.4,4.4,10.4,7.2,17.2,7.2h337.2c6.8,0,12.8-2.8,17.2-7.2l0,0	c4.4-4.4,7.2-10.4,7.2-17.2V173.8C386,167,383.2,161,378.8,156.6L378.8,156.6z M182.4,41.4c2.8-2.8,6.4-4.4,10.4-4.4	s7.6,1.6,10.4,4.4s4.4,6.4,4.4,10.4s-1.6,7.6-4.4,10.4l-0.4,0.4c-2.8,2.4-6,4-10,4s-7.6-1.6-10.4-4.4l0,0l0,0	c-2.8-2.8-4.4-6.4-4.4-10.4C178,47.8,179.6,44.2,182.4,41.4z M163.6,71c1.2,2,2.8,4,4.4,5.6l0,0c6.4,6.4,14.8,10,24.4,10	c9.2,0,17.6-3.6,24-9.6c0.4,0,0.4-0.4,0.8-0.4c1.6-1.6,3.2-3.6,4.4-5.6l75.6,78.4H88.4L163.6,71z M366,344.2c0,1.2-0.4,2.4-1.2,3.2	l0,0c-0.8,0.8-2,1.2-3.2,1.2H24c-1.2,0-2.4-0.4-3.2-1.2c-0.8-0.8-1.2-2-1.2-3.2V173.8c0-1.2,0.4-2.4,1.2-3.2l0,0	c0.8-0.8,2-1.2,3.2-1.2h337.2c1.2,0,2.4,0.4,3.2,1.2l0,0c0.8,0.8,1.2,2,1.2,3.2v170.4H366z"/></svg>