<svg xmlns="http://www.w3.org/2000/svg" width="512pt" height="512pt" viewBox="0 0 512 512.001"><path fill="#ff637b" d="m140.582031 189.78125c-31.550781-4.289062-68.355469 9.351562-93.761719 34.761719l-42.425781 42.425781c-4.796875 4.796875-5.78125 12.222656-2.382812 18.105469 3.316406 5.804687 10.261719 8.761719 16.871093 6.992187 26.921876-7.21875 62.554688-9.621094 71.316407-2.929687zm0 0"/><path fill="#e63950" d="m321.304688 371.636719-99.5 48c5.542968 7.550781 5.105468 31.433593-1.355469 75.167969-.964844 6.46875 2.378906 12.730468 8.089843 15.585937 5.777344 2.921875 12.769532 1.792969 17.347657-2.785156l42.425781-42.425781c23.96875-23.96875 36.925781-60.6875 32.992188-93.542969zm0 0"/><path fill="#7c8388" d="m236.761719 424.753906c-35 18.878906-39.453125 19.941406-44.757813 23.546875-5.941406 3.816407-13.578125 2.96875-18.667968-2.121093l-106.066407-106.066407c-4.878906-4.878906-5.9375-12.730469-2.121093-18.667969 3.605468-5.304687 4.03125-8.699218 23.121093-45.183593l42.003907-.425781 106.066406 106.066406zm0 0"/><path fill="#575f64" d="m236.761719 424.753906c-35 18.878906-39.453125 19.941406-44.757813 23.546875-5.941406 3.816407-13.578125 2.96875-18.667968-2.121093l-53.035157-53.035157 63.640625-63.636719 52.394532 52.394532zm0 0"/><path fill="#faecd8" d="m236.761719 424.753906-148.492188-148.492187c73.609375-138.945313 162.070313-225.710938 264.742188-259.648438l72.125 71.699219 70.425781 70.429688c-33.9375 102.246093-120.488281 191.339843-258.800781 266.011718zm0 0"/><path fill="#f4d7af" d="m236.761719 424.753906-74.035157-74.035156 262.410157-262.40625 70.425781 70.425781c-33.9375 102.25-120.488281 191.34375-258.800781 266.015625zm0 0"/><path fill="#64e1dc" d="m378.890625 134.558594-.636719-.636719c-29.273437-29.273437-76.792968-29.277344-106.066406 0-29.273438 29.273437-29.273438 76.792969 0 106.0625l.636719.636719c29.273437 28.425781 76.367187 28.425781 105.429687-.636719 29.0625-29.058594 29.0625-76.15625.636719-105.425781zm0 0"/><path fill="#00c8c8" d="m378.253906 239.984375c-29.0625 29.0625-76.15625 29.0625-105.429687.636719l106.066406-106.0625c28.425781 29.269531 28.425781 76.367187-.636719 105.425781zm0 0"/><path fill="#ff637b" d="m495.5625 158.738281c-32.453125-2.332031-67.242188-17.605469-95.457031-45.394531l-.636719-.636719c-28.425781-28.425781-44.335938-63.429687-46.457031-96.097656 9.757812-3.394531 19.726562-6.152344 29.699219-8.484375 36.273437-8.273438 74.246093-10.183594 113.703124-5.9375 3.816407.421875 7.421876 2.332031 9.542969 5.300781 2.121094 2.121094 3.609375 4.878907 3.820313 8.0625 4.457031 39.242188 2.121094 77.214844-6.152344 113.488281-2.332031 9.972657-4.878906 19.730469-8.0625 29.699219zm0 0"/><path fill="#e63950" d="m495.5625 158.738281c-32.453125-2.332031-67.242188-17.605469-95.457031-45.394531l105.851562-105.855469c2.121094 2.121094 3.605469 4.878907 3.820313 8.0625 4.453125 39.246094 2.121094 77.214844-6.152344 113.488281-2.332031 9.972657-4.878906 19.730469-8.0625 29.699219zm0 0"/><path fill="#ff637b" d="m234.214844 292.808594c-.210938-3.609375-1.695313-6.789063-4.242188-9.335938-2.546875-3.394531-6.574218-5.726562-10.816406-5.726562-55.15625-.425782-67.460938 19.089844-70.640625 22.273437-91.851563 91.851563-92.914063 137.039063-92.914063 141.703125.210938 4.03125 1.695313 7.640625 4.453126 10.394532.210937.210937.425781.425781.851562.425781 2.121094 2.121093 5.089844 3.394531 8.269531 3.605469 7.636719.847656 50.699219-.210938 142.976563-92.488282 20.792968-20.789062 22.277344-40.09375 22.0625-70.851562zm0 0"/><path fill="#e63950" d="m234.214844 292.808594c.214844 30.757812-1.269532 50.0625-22.0625 70.851562-92.277344 92.277344-135.339844 93.335938-142.972656 92.488282-3.183594-.210938-6.152344-1.484376-8.273438-3.605469l169.070312-169.070313c2.542969 2.546875 4.027344 5.726563 4.238282 9.335938zm0 0"/></svg>