<?xml version="1.0" standalone="no"?>
<!DOCTYPE svg PUBLIC "-//W3C//DTD SVG 1.1//EN" "http://www.w3.org/Graphics/SVG/1.1/DTD/svg11.dtd">
<svg xmlns="http://www.w3.org/2000/svg" width="263" height="69" viewBox="0 0 263 69" fill="none">
<path d="M238.517 17.0377V49.9038C238.518 50.0118 238.561 50.1154 238.637 50.1917C238.713 50.2682 238.817 50.3113 238.925 50.3116H262.592C262.701 50.3116 262.804 50.2686 262.881 50.1922C262.957 50.1157 263 50.0119 263 49.9038V44.5381C263 44.4299 262.957 44.3262 262.881 44.2497C262.804 44.1732 262.701 44.1302 262.592 44.1302H245.117V17.0377C245.117 16.9845 245.107 16.9319 245.086 16.8828C245.066 16.8338 245.036 16.7894 244.998 16.7521C244.96 16.7149 244.915 16.6856 244.865 16.666C244.816 16.6464 244.763 16.6368 244.71 16.6379H238.925C238.872 16.6368 238.819 16.6464 238.769 16.666C238.72 16.6856 238.675 16.7149 238.637 16.7521C238.599 16.7894 238.569 16.8338 238.548 16.8828C238.528 16.9319 238.517 16.9845 238.517 17.0377Z" fill="#21202D"/>
<path d="M228.478 21.4663C226.939 19.7504 225.052 18.3838 222.942 17.4583C220.832 16.5329 218.548 16.0699 216.245 16.1005C206.265 16.1005 199.049 24.2251 199.049 33.5891C199.062 35.9117 199.534 38.2087 200.438 40.3478C201.342 42.4869 202.66 44.4257 204.317 46.0523C205.973 47.6789 207.935 48.9612 210.089 49.8251C212.244 50.689 214.547 51.1174 216.868 51.0857C219.578 51.1481 222.268 50.6014 224.739 49.486C227.21 48.3705 229.4 46.7148 231.147 44.6405L232.026 43.6009C232.062 43.5557 232.088 43.5035 232.103 43.4475C232.118 43.3915 232.121 43.333 232.112 43.2758C232.103 43.2186 232.082 43.1639 232.051 43.1152C232.019 43.0665 231.978 43.025 231.93 42.9932L226.968 39.9864C226.887 39.9369 226.791 39.9177 226.697 39.9323C226.604 39.947 226.518 39.9945 226.456 40.0664L225.753 40.8661C224.645 42.1178 223.274 43.1084 221.737 43.7665C220.201 44.4247 218.538 44.734 216.868 44.6724C214.471 44.7 212.129 43.9498 210.193 42.5343C208.257 41.1188 206.831 39.1139 206.129 36.8198H232.417C232.521 36.8199 232.622 36.7803 232.697 36.7089C232.773 36.6376 232.819 36.5399 232.825 36.4359L232.889 35.3004C233.144 29.6788 231.506 24.8808 228.478 21.4663ZM205.554 36.4039V36.5079C205.577 36.4679 205.562 36.4359 205.554 36.4039ZM206.057 30.3745C206.617 28.1005 207.927 26.0823 209.776 24.6468C211.625 23.2114 213.905 22.4429 216.245 22.4659C220.783 22.4659 224.627 25.4646 225.833 30.3745H206.057Z" fill="#21202D"/>
<path d="M180.531 57.218L197.415 17.347C197.441 17.2849 197.452 17.2172 197.446 17.15C197.439 17.0828 197.417 17.0182 197.38 16.9619C197.342 16.9057 197.292 16.8595 197.232 16.8276C197.173 16.7957 197.106 16.7791 197.039 16.7792H190.815C190.734 16.778 190.656 16.801 190.589 16.8452C190.522 16.8895 190.469 16.9528 190.439 17.0271L181.202 38.7938L171.182 17.0511C171.15 16.9802 171.098 16.9199 171.033 16.8774C170.968 16.8349 170.892 16.8119 170.814 16.8112H164.55C164.481 16.8123 164.414 16.8304 164.354 16.8639C164.294 16.8974 164.243 16.9452 164.206 17.0031C164.175 17.0622 164.158 17.1281 164.158 17.195C164.158 17.262 164.175 17.3279 164.206 17.387L177.79 46.9744L173.571 56.9381C173.546 56.9998 173.537 57.0666 173.544 57.1327C173.551 57.1988 173.574 57.2622 173.611 57.3174C173.648 57.3726 173.698 57.4179 173.756 57.4493C173.815 57.4808 173.88 57.4975 173.947 57.4979H180.163C180.246 57.4951 180.326 57.4666 180.392 57.4165C180.457 57.3664 180.506 57.297 180.531 57.218Z" fill="#21202D"/>
<path d="M158.804 50.3091C158.912 50.3091 159.015 50.2661 159.092 50.1896C159.168 50.1131 159.211 50.0094 159.211 49.9012V17.2191C159.211 17.1109 159.168 17.0072 159.092 16.9307C159.015 16.8542 158.912 16.8113 158.804 16.8113H152.955C152.847 16.8113 152.743 16.8542 152.666 16.9307C152.59 17.0072 152.547 17.1109 152.547 17.2191V49.9012C152.547 50.0094 152.59 50.1131 152.666 50.1896C152.743 50.2661 152.847 50.3091 152.955 50.3091H158.804Z" fill="#21202D"/>
<path d="M119.858 16.8112H114.265C114.198 16.8113 114.132 16.8282 114.073 16.8603C114.015 16.8924 113.965 16.9388 113.929 16.9951C113.891 17.0493 113.868 17.1122 113.861 17.1779C113.854 17.2436 113.864 17.31 113.889 17.3709L127.393 50.0611C127.424 50.1347 127.477 50.1975 127.543 50.2416C127.61 50.2857 127.689 50.3091 127.769 50.309H132.97C133.051 50.3102 133.129 50.2872 133.196 50.2429C133.263 50.1987 133.315 50.1354 133.346 50.0611L147.577 17.3469C147.61 17.2886 147.628 17.2224 147.628 17.155C147.628 17.0876 147.61 17.0214 147.577 16.9631C147.541 16.9068 147.491 16.8604 147.432 16.8283C147.374 16.7962 147.308 16.7793 147.241 16.7792H140.929C140.85 16.7796 140.773 16.8033 140.707 16.8474C140.642 16.8915 140.591 16.9541 140.561 17.0271L130.405 40.4571L120.234 17.0591C120.202 16.9854 120.15 16.9226 120.083 16.8785C120.016 16.8345 119.938 16.811 119.858 16.8112Z" fill="#21202D"/>
<path d="M107.76 19.6107C105.363 17.2837 102.063 16.1002 98.1714 16.1002C93.4785 16.0849 88.9485 17.8213 85.4667 20.9701L84.316 21.9297C84.2702 21.9693 84.2336 22.0185 84.2088 22.0737C84.1839 22.129 84.1714 22.189 84.1722 22.2496C84.1744 22.311 84.1906 22.3711 84.2197 22.4251C84.2488 22.4792 84.29 22.5259 84.34 22.5615L88.9744 25.984C89.0458 26.0343 89.1309 26.0612 89.2182 26.0612C89.3054 26.0612 89.3905 26.0343 89.4619 25.984L90.213 25.4242C92.2505 23.9369 94.4958 22.4655 98.2034 22.4655C100.912 22.4655 102.446 23.3291 103.357 24.4247C104.351 25.7783 104.847 27.4333 104.764 29.1107V29.4785C100.481 29.4785 95.3029 29.4785 91.1239 30.67C88.9214 31.1942 86.8991 32.2986 85.2669 33.8687C84.4408 34.7506 83.7979 35.7878 83.3754 36.9203C82.9529 38.0528 82.7593 39.2579 82.8058 40.4659C82.8058 46.8632 88.487 51.0854 95.4067 51.0854C98.775 51.175 102.074 50.1177 104.764 48.0866V49.9019C104.764 50.01 104.806 50.1138 104.883 50.1903C104.959 50.2667 105.063 50.3097 105.171 50.3097H110.956C111.064 50.3097 111.168 50.2667 111.244 50.1903C111.321 50.1138 111.364 50.01 111.364 49.9019V29.1107C111.356 25.2243 110.125 21.9377 107.76 19.6107ZM104.756 39.2904C104.004 41.2176 101.4 44.6561 95.3988 44.6561C93.9201 44.6916 92.4629 44.2971 91.2038 43.5206C90.682 43.2023 90.2525 42.7529 89.9581 42.217C89.6637 41.6811 89.5147 41.0773 89.5258 40.4659C89.4975 39.9692 89.5853 39.4729 89.7823 39.0162C89.9792 38.5595 90.2799 38.155 90.6604 37.835C91.7113 37.0734 92.9317 36.5794 94.2162 36.3956C97.2939 35.9373 100.408 35.7713 103.517 35.8998H104.756V39.2904Z" fill="#21202D"/>
<path fill-rule="evenodd" clip-rule="evenodd" d="M36.4575 5.43893C35.8745 5.04214 35.1868 4.83008 34.483 4.83008C33.7792 4.83008 33.0915 5.04214 32.5085 5.43893L14.4794 17.677L14.335 17.7795L10.4031 20.4459C9.98448 20.8174 9.65652 21.2809 9.44461 21.8006C9.23271 22.3202 9.14257 22.8819 9.18116 23.4422C9.21976 24.0025 9.38607 24.5464 9.66719 25.0316C9.9483 25.5168 10.3367 25.9304 10.8022 26.2402L18.216 31.12L29.8674 23.2063C31.2302 22.2786 32.8377 21.7828 34.483 21.7828C36.1283 21.7828 37.7358 22.2786 39.0986 23.2063L48.1514 29.3595V13.3783L36.4575 5.43893ZM46.2661 33.889L36.466 27.2401C35.883 26.8433 35.1953 26.6312 34.4915 26.6312C33.7877 26.6312 33.1 26.8433 32.517 27.2401L22.5726 33.983L32.4746 40.5037C33.0576 40.9005 33.7452 41.1125 34.449 41.1125C35.1528 41.1125 35.8405 40.9005 36.4235 40.5037L45.8839 34.0855L46.2661 33.889ZM52.9156 33.0344C53.7268 33.2749 54.497 33.638 55.2 34.1112L67.9384 42.7684C68.2661 42.9912 68.5344 43.2917 68.7195 43.6434C68.9046 43.9951 69.0009 44.3873 69 44.7853V66.5779C69.0019 67.0151 68.8861 67.4446 68.6648 67.8208C68.4435 68.1971 68.1249 68.5059 67.7431 68.7144C67.3633 68.9205 66.9347 69.0183 66.5037 68.9972C66.0726 68.9761 65.6555 68.837 65.2973 68.5948L52.5589 59.9375C51.9742 59.5411 51.2852 59.3293 50.5802 59.3293C49.8751 59.3293 49.1862 59.5411 48.6015 59.9375L39.1071 66.3557C37.7443 67.2834 36.1368 67.7792 34.4915 67.7792C32.8462 67.7792 31.2387 67.2834 29.8759 66.3557L3.71964 48.5968C2.57256 47.8188 1.63328 46.7687 0.984617 45.5392C0.335951 44.3096 -0.00218627 42.9384 1.0637e-05 41.5463V26.2231C0.00187871 25.263 0.1626 24.3099 0.47558 23.4029C1.07533 21.6825 2.2061 20.2001 3.70266 19.1726L7.57515 16.5489C7.76198 16.3951 7.9573 16.2498 8.16111 16.113L11.7024 13.7372L29.8674 1.41371C31.2263 0.492255 32.8275 0 34.466 0C36.1046 0 37.7058 0.492255 39.0646 1.41371L51.8031 10.0709C52.1297 10.2942 52.3967 10.595 52.5804 10.9468C52.764 11.2985 52.8587 11.6904 52.8561 12.0878L52.9156 33.0344ZM4.78967 25.7274C4.77675 25.8924 4.77675 26.0581 4.78967 26.2231V41.5463C4.78769 42.1417 4.93155 42.7285 5.20854 43.2547C5.48552 43.7809 5.88709 44.2302 6.37773 44.5631L32.517 62.3732C33.1 62.77 33.7877 62.982 34.4915 62.982C35.1953 62.982 35.883 62.77 36.466 62.3732L45.9264 55.9551C47.2891 55.0274 48.8967 54.5316 50.542 54.5316C52.1872 54.5316 53.7948 55.0274 55.1575 55.9551L64.2188 62.1083V46.0757L52.5164 38.1364C51.9317 37.74 51.2427 37.5282 50.5377 37.5282C49.8327 37.5282 49.1437 37.74 48.559 38.1364L39.1071 44.5545C37.7465 45.4796 36.142 45.974 34.5 45.974C32.858 45.974 31.2535 45.4796 29.8929 44.5545L8.22056 30.3081C6.57527 29.2369 5.35987 27.6142 4.78967 25.7274Z" fill="#8661D1"/>
</svg>