<svg fill="none" height="44" viewBox="0 0 160 44" width="160" xmlns="http://www.w3.org/2000/svg" xmlns:xlink="http://www.w3.org/1999/xlink"><clipPath id="a"><path d="m0 .312439h160v43.264h-160z"/></clipPath><g clip-path="url(#a)"><path d="m30.8285 18.8299h-13.4434c-.1666.0001-.3263.0663-.4442.1841-.1178.1178-.184.2776-.1841.4442v6.5728c.0001.1667.0663.3265.1841.4445s.2775.1844.4442.1848h5.2443v8.1657s-1.1776.4018-4.4332.4018c-3.8408 0-9.2064-1.4038-9.2064-13.2022 0-11.8008 5.5871-13.35384 10.8324-13.35384 4.5404 0 6.4965.79982 7.7411 1.18458.391.11992.7528-.26917.7528-.61661l1.4997-6.35027c0-.16223-.0549-.3581-.2402-.49102-.5053-.36044-3.589-2.086001-11.3794-2.086001-8.97455 0-18.1803309 3.818561-18.1803309 22.173161 0 18.3559 10.5399309 21.0908 19.4216309 21.0908 7.3539 0 11.8151-3.1426 11.8151-3.1426.1839-.102.2038-.3588.2038-.4767v-20.4992c0-.3465-.2811-.628-.6279-.628zm69.2825-16.3182c0-.08249-.015-.16432-.046-.24076-.031-.07645-.0772-.14601-.1352-.2047-.0579-.05869-.1269-.10534-.203-.13729-.0761-.03194-.1577-.04854-.2402-.04884h-7.5698c-.0826.0003-.1644.01688-.2406.04879-.0763.0319-.1455.07851-.2037.13716s-.1043.12819-.1356.20466c-.0314.07646-.0473.15834-.047.24098l.002 14.6283h-11.7988v-14.6283c.0006-.08252-.0151-.16436-.0462-.24081s-.077-.14601-.135-.20469-.1271-.10533-.2032-.13726c-.0761-.03194-.1577-.04853-.2402-.04883h-7.5692c-.1667.00088-.3261.0679-.4434.18634-.1172.11844-.1827.27859-.1819.44525v39.6093c0 .3491.2809.6333.6253.6333h7.5692c.3461 0 .6246-.2845.6246-.6333v-16.9425h11.7988l-.0207 16.9425c0 .3491.2812.6333.6273.6333h7.5875c.3467 0 .624-.2845.625-.6333zm-54.9986 5.19801c0-2.72592-2.1853-4.92851-4.8812-4.92851-2.6933 0-4.8803 2.20259-4.8803 4.92851 0 2.72259 2.187 4.93089 4.8803 4.93089 2.6959 0 4.8812-2.2083 4.8812-4.93089zm-.5413 26.05599v-18.2836c.0004-.1667-.0653-.3268-.1827-.4451-.1174-.1184-.2769-.1853-.4436-.1862h-7.5455c-.3461 0-.6559.3571-.6559.7046v26.1945c0 .7702.4797.9987 1.1006.9987h6.7983c.7459 0 .9288-.3664.9288-1.0107zm84.3069-18.8553h-7.512c-.344 0-.625.2839-.625.6333v19.4216s-1.908 1.3964-4.617 1.3964c-2.708 0-3.426-1.2289-3.426-3.8808v-16.9372c0-.3494-.281-.6333-.625-.6333h-7.624c-.344 0-.626.2839-.626.6333v18.2193c0 7.877 4.39 9.8041 10.43 9.8041 4.955 0 8.949-2.7369 8.949-2.7369s.19 1.4421.276 1.6133c.087.1706.311.3428.553.3428l4.85-.0213c.344 0 .626-.2845.626-.6323l-.003-26.5887c0-.3497-.28-.6336-.626-.6336zm17.567 21.4273c-2.606-.0793-4.373-1.2618-4.373-1.2618v-12.543s1.743-1.0687 3.882-1.2599c2.705-.2421 5.312.575 5.312 7.0272 0 6.8043-1.176 8.1471-4.821 8.0375zm2.962-22.3167c-4.266 0-7.168 1.9035-7.168 1.9035v-13.41247c0-.34978-.279-.63192-.624-.63192h-7.591c-.083.00039-.164.01705-.241.04902-.076.03198-.145.07864-.203.13732-.058.05869-.104.12824-.135.2047-.031.07645-.047.1583-.047.24088v39.60897c0 .3491.281.6333.627.6333h5.267c.237 0 .416-.1223.549-.3361.131-.2129.32-1.8262.32-1.8262s3.104 2.9415 8.98 2.9415c6.898 0 10.854-3.4991 10.854-15.708 0-12.2092-6.318-13.8045-10.588-13.8045zm-83.0809.8265h-5.678l-.0086-7.50156c0-.28382-.1463-.42573-.4744-.42573h-7.7377c-.3008 0-.4624.13258-.4624.4214v7.75209s-3.8775.9357-4.1397 1.0116c-.1308.0379-.2457.1173-.3275.2262-.0817.1088-.1259.2413-.1259.3775v4.8712c0 .3504.2799.6322.626.6322h3.9671v11.7185c0 8.7045 6.1054 9.5596 10.2255 9.5596 1.8824 0 4.1343-.6043 4.5061-.7422.2248-.0826.3554-.3155.3554-.568l.0063-5.3585c0-.3498-.2951-.632-.6276-.632-.3307 0-1.1772.1346-2.0486.1346-2.7889 0-3.734-1.2968-3.734-2.9754l-.0003-11.1369h5.6783c.3462 0 .6263-.2822.6263-.6323v-6.1017c.0004-.0826-.0155-.1644-.0468-.2408-.0312-.0764-.0773-.1459-.1355-.2045-.0581-.0586-.1273-.1051-.2035-.1369s-.1579-.0482-.2405-.0484z" fill="#fff"/></g></svg>