<?xml version="1.0" encoding="UTF-8"?> <!-- Generator: Adobe Illustrator 16.0.0, SVG Export Plug-In . SVG Version: 6.00 Build 0) --> <svg xmlns="http://www.w3.org/2000/svg" xmlns:xlink="http://www.w3.org/1999/xlink" id="Layer_1" x="0px" y="0px" width="349px" height="94px" viewBox="0 0 349 94" xml:space="preserve"> <g> <defs> <rect id="SVGID_1_" x="-223" y="-350" width="800" height="800"></rect> </defs> <clipPath id="SVGID_2_"> <use xlink:href="#SVGID_1_" overflow="visible"></use> </clipPath> <path clip-path="url(#SVGID_2_)" fill="#626161" d="M55.322,60.674H41.927V31.996c0-3.543-0.593-6.199-1.779-7.97 c-1.185-1.772-3.052-2.658-5.599-2.658c-3.426,0-5.914,1.259-7.466,3.777c-1.553,2.518-2.328,6.661-2.328,12.428v23.101H11.36 v-49.1h10.233l1.801,6.281h0.746c1.318-2.254,3.221-4.019,5.71-5.292c2.488-1.274,5.342-1.911,8.563-1.911 c7.349,0,12.326,2.401,14.932,7.203h1.186c1.317-2.284,3.256-4.055,5.819-5.315c2.562-1.258,5.453-1.888,8.674-1.888 c5.562,0,9.772,1.427,12.626,4.282c2.854,2.854,4.282,7.43,4.282,13.724v23.54c0,4.682-3.795,8.477-8.477,8.477h-4.961V31.996 c0-3.543-0.593-6.199-1.779-7.97c-1.185-1.772-3.053-2.658-5.6-2.658c-3.279,0-5.731,1.172-7.356,3.514s-2.437,6.06-2.437,11.154 V60.674z"></path> <path clip-path="url(#SVGID_2_)" fill="#626161" d="M92.651,10.652h14.668l9.268,27.625c0.79,2.4,1.331,5.24,1.624,8.52h0.264 c0.321-3.016,0.95-5.856,1.889-8.52l9.091-27.625h14.36l-20.772,55.38c-1.904,5.122-4.619,8.958-8.146,11.506 c-3.529,2.547-7.65,3.821-12.365,3.821c-2.313,0-4.582-0.249-6.807-0.747V69.985c1.61,0.379,3.367,0.569,5.27,0.569 c2.372,0,4.443-0.725,6.215-2.174c1.771-1.448,3.154-3.638,4.149-6.565l0.791-2.414L92.651,10.652z"></path> <path clip-path="url(#SVGID_2_)" fill="#626161" d="M146.889,81.358c-3.424,0-6.369-0.366-8.828-1.098v-10.54 c2.052,0.556,4.145,0.834,6.281,0.834c2.254,0,3.901-0.629,4.941-1.888c1.038-1.259,1.559-3.118,1.559-5.578V24.046 c0-7.397,5.996-13.395,13.395-13.395v54.414c0,5.211-1.508,9.229-4.523,12.056C156.697,79.946,152.422,81.358,146.889,81.358"></path> <path clip-path="url(#SVGID_2_)" fill="#626161" d="M200.513,61.552c-7.904,0-14.083-2.18-18.534-6.543 c-4.449-4.363-6.674-10.54-6.674-18.533c0-8.227,2.056-14.587,6.17-19.083c4.113-4.493,9.801-6.741,17.063-6.741 c6.938,0,12.341,1.977,16.205,5.929c3.865,3.953,5.797,9.413,5.797,16.381v6.5h-31.665c0.146,3.807,1.274,6.779,3.382,8.915 c2.108,2.138,5.065,3.207,8.872,3.207c2.957,0,5.753-0.307,8.388-0.923c2.636-0.614,5.387-1.596,8.256-2.941v10.364 c-2.342,1.172-4.846,2.043-7.509,2.613C207.598,61.267,204.348,61.552,200.513,61.552 M198.624,20.182 c-2.84,0-5.064,0.9-6.676,2.701c-1.61,1.801-2.532,4.355-2.767,7.664h18.797c-0.059-3.309-0.922-5.863-2.591-7.664 C203.719,21.082,201.464,20.182,198.624,20.182"></path> <path clip-path="url(#SVGID_2_)" fill="#626161" d="M276.753,60.674h-13.396V31.996c0-3.543-0.629-6.199-1.888-7.97 c-1.259-1.772-3.264-2.658-6.016-2.658c-3.749,0-6.456,1.252-8.125,3.756c-1.669,2.502-2.504,6.652-2.504,12.449v23.101h-13.395 v-49.1h10.232l1.801,6.281c0,0,4.296-4.165,6.917-5.38c2.62-1.215,5.6-1.823,8.938-1.823c5.709,0,10.042,1.545,13,4.634 c2.956,3.089,4.435,7.546,4.435,13.372V60.674z"></path> <path clip-path="url(#SVGID_2_)" fill="#626161" d="M320.298,59.715l-1.77-4.015c-1.355,1.708-2.751,2.892-4.187,3.552 c-1.435,0.661-3.305,0.991-5.611,0.991c-2.835,0-5.066-0.811-6.695-2.43c-1.628-1.62-2.442-3.926-2.442-6.92 c0-3.133,1.096-5.444,3.288-6.932c2.191-1.488,5.497-2.311,9.916-2.469l5.124-0.159v-1.294c0-2.993-1.532-4.489-4.596-4.489 c-2.359,0-5.132,0.713-8.318,2.139l-2.668-5.441c3.398-1.778,7.166-2.667,11.304-2.667c3.961,0,6.998,0.863,9.111,2.588 c2.112,1.726,3.169,4.349,3.169,7.87v19.676H320.298z M317.921,46.034l-3.116,0.106c-2.342,0.07-4.085,0.493-5.229,1.268 c-1.145,0.774-1.718,1.954-1.718,3.539c0,2.271,1.304,3.406,3.91,3.406c1.866,0,3.358-0.537,4.477-1.611 c1.117-1.073,1.677-2.5,1.677-4.278V46.034z"></path> <path clip-path="url(#SVGID_2_)" fill="#626161" d="M333.872,22.556c0-2.623,1.461-3.935,4.384-3.935s4.384,1.312,4.384,3.935 c0,1.25-0.365,2.223-1.096,2.919c-0.731,0.695-1.826,1.043-3.288,1.043C335.333,26.518,333.872,25.197,333.872,22.556 M342.271,59.715h-8.056V30.189h8.056V59.715z"></path> <path clip-path="url(#SVGID_2_)" fill="#62B55D" d="M25.64,78.314c0,3.865-3.134,7-7,7c-3.866,0-7-3.135-7-7c0-3.866,3.134-7,7-7 C22.506,71.314,25.64,74.448,25.64,78.314"></path> <path clip-path="url(#SVGID_2_)" fill="#62B55D" d="M55.974,78.314c0,3.865-3.134,7-7,7s-7-3.135-7-7c0-3.866,3.134-7,7-7 S55.974,74.448,55.974,78.314"></path> <path clip-path="url(#SVGID_2_)" fill="#62B55D" d="M86.307,78.314c0,3.865-3.134,7-7,7s-7-3.135-7-7c0-3.866,3.134-7,7-7 S86.307,74.448,86.307,78.314"></path> <path clip-path="url(#SVGID_2_)" fill="#626161" d="M294.14,55.814c0,3.037-2.462,5.5-5.5,5.5c-3.037,0-5.5-2.463-5.5-5.5 c0-3.038,2.463-5.5,5.5-5.5C291.678,50.314,294.14,52.776,294.14,55.814"></path> <path clip-path="url(#SVGID_2_)" fill="#626161" d="M254.389,85.412l-0.376-1.231h-0.064c-0.427,0.538-0.856,0.905-1.288,1.1 s-0.986,0.292-1.664,0.292c-0.869,0-1.548-0.234-2.036-0.704c-0.487-0.47-0.731-1.134-0.731-1.992c0-0.912,0.338-1.6,1.016-2.063 s1.709-0.718,3.097-0.761l1.527-0.048v-0.472c0-0.565-0.132-0.988-0.396-1.268c-0.265-0.28-0.674-0.421-1.229-0.421 c-0.453,0-0.888,0.067-1.304,0.2c-0.416,0.134-0.816,0.291-1.2,0.473l-0.608-1.345c0.48-0.25,1.006-0.44,1.576-0.572 c0.571-0.13,1.108-0.195,1.616-0.195c1.125,0,1.975,0.245,2.548,0.735c0.573,0.491,0.86,1.262,0.86,2.313v5.96H254.389z M251.588,84.132c0.684,0,1.231-0.19,1.645-0.572c0.413-0.381,0.62-0.916,0.62-1.604v-0.769l-1.136,0.048 c-0.886,0.033-1.53,0.181-1.933,0.445c-0.402,0.263-0.604,0.668-0.604,1.212c0,0.395,0.117,0.699,0.352,0.916 C250.767,84.024,251.119,84.132,251.588,84.132"></path> <path clip-path="url(#SVGID_2_)" fill="#626161" d="M267.133,76.404c1.104,0,1.964,0.4,2.58,1.2c0.615,0.8,0.924,1.922,0.924,3.367 c0,1.451-0.313,2.581-0.937,3.389s-1.491,1.212-2.6,1.212c-1.12,0-1.989-0.403-2.608-1.208h-0.128l-0.344,1.048h-1.408V72.964h1.88 v2.961c0,0.218-0.011,0.543-0.033,0.976c-0.021,0.432-0.036,0.706-0.047,0.824h0.08C265.09,76.844,265.97,76.404,267.133,76.404 M266.645,77.94c-0.758,0-1.303,0.223-1.636,0.668c-0.334,0.445-0.506,1.19-0.517,2.235v0.128c0,1.078,0.171,1.857,0.512,2.341 c0.342,0.481,0.899,0.724,1.673,0.724c0.666,0,1.172-0.264,1.516-0.792s0.515-1.291,0.515-2.288 C268.707,78.945,268.021,77.94,266.645,77.94"></path> <path clip-path="url(#SVGID_2_)" fill="#626161" d="M276.685,85.572c-1.376,0-2.452-0.401-3.228-1.204 c-0.776-0.803-1.164-1.908-1.164-3.315c0-1.445,0.359-2.582,1.08-3.409c0.72-0.826,1.709-1.239,2.968-1.239 c1.168,0,2.091,0.354,2.768,1.063c0.678,0.71,1.017,1.686,1.017,2.928v1.017h-5.896c0.026,0.859,0.258,1.519,0.696,1.98 c0.437,0.461,1.053,0.691,1.848,0.691c0.523,0,1.009-0.049,1.46-0.147c0.451-0.1,0.935-0.263,1.452-0.492v1.528 c-0.459,0.218-0.923,0.373-1.392,0.464C277.823,85.527,277.287,85.572,276.685,85.572 M276.341,77.828 c-0.598,0-1.076,0.189-1.438,0.568c-0.358,0.378-0.573,0.931-0.643,1.655h4.016c-0.011-0.73-0.187-1.283-0.527-1.659 C277.407,78.015,276.938,77.828,276.341,77.828"></path> <path clip-path="url(#SVGID_2_)" fill="#626161" d="M285.557,84.052c0.459,0,0.917-0.071,1.376-0.216v1.416 c-0.208,0.091-0.476,0.167-0.804,0.229c-0.328,0.061-0.668,0.093-1.02,0.093c-1.782,0-2.673-0.939-2.673-2.817v-4.767h-1.208 v-0.833l1.296-0.688l0.641-1.872h1.159v1.968h2.521v1.426h-2.521v4.735c0,0.453,0.113,0.787,0.341,1.004 C284.892,83.944,285.188,84.052,285.557,84.052"></path> <path clip-path="url(#SVGID_2_)" fill="#626161" d="M291.997,84.052c0.458,0,0.917-0.071,1.375-0.216v1.416 c-0.207,0.091-0.476,0.167-0.804,0.229c-0.328,0.061-0.668,0.093-1.02,0.093c-1.782,0-2.673-0.939-2.673-2.817v-4.767h-1.208 v-0.833l1.296-0.688l0.641-1.872h1.16v1.968h2.52v1.426h-2.52v4.735c0,0.453,0.113,0.787,0.34,1.004 C291.331,83.944,291.628,84.052,291.997,84.052"></path> <path clip-path="url(#SVGID_2_)" fill="#626161" d="M299.005,85.572c-1.376,0-2.452-0.401-3.229-1.204 c-0.775-0.803-1.164-1.908-1.164-3.315c0-1.445,0.36-2.582,1.08-3.409c0.72-0.826,1.71-1.239,2.968-1.239 c1.169,0,2.092,0.354,2.77,1.063c0.676,0.71,1.015,1.686,1.015,2.928v1.017h-5.896c0.026,0.859,0.259,1.519,0.695,1.98 c0.438,0.461,1.054,0.691,1.849,0.691c0.522,0,1.009-0.049,1.46-0.147c0.451-0.1,0.935-0.263,1.452-0.492v1.528 c-0.459,0.218-0.923,0.373-1.392,0.464C300.144,85.527,299.607,85.572,299.005,85.572 M298.66,77.828 c-0.597,0-1.076,0.189-1.436,0.568c-0.36,0.378-0.575,0.931-0.644,1.655h4.017c-0.012-0.73-0.188-1.283-0.529-1.659 C299.728,78.015,299.258,77.828,298.66,77.828"></path> <path clip-path="url(#SVGID_2_)" fill="#626161" d="M309.069,76.404c0.378,0,0.688,0.026,0.936,0.08l-0.185,1.752 c-0.268-0.064-0.544-0.096-0.832-0.096c-0.752,0-1.36,0.245-1.827,0.735c-0.468,0.491-0.7,1.128-0.7,1.912v4.624h-1.88v-8.849 h1.472l0.247,1.561h0.097c0.293-0.527,0.677-0.946,1.148-1.256S308.524,76.404,309.069,76.404"></path> <path clip-path="url(#SVGID_2_)" fill="#626161" d="M314.557,76.563h2.048l1.801,5.017c0.271,0.715,0.453,1.387,0.544,2.016h0.063 c0.049-0.293,0.137-0.649,0.265-1.067c0.128-0.419,0.805-2.406,2.032-5.965h2.031l-3.784,10.024 c-0.688,1.841-1.834,2.761-3.439,2.761c-0.416,0-0.821-0.046-1.216-0.137v-1.487c0.282,0.063,0.605,0.096,0.967,0.096 c0.907,0,1.544-0.525,1.913-1.576l0.328-0.832L314.557,76.563z"></path> <path clip-path="url(#SVGID_2_)" fill="#626161" d="M332.533,80.972c0,1.445-0.371,2.574-1.112,3.385s-1.773,1.216-3.096,1.216 c-0.827,0-1.558-0.187-2.192-0.56c-0.635-0.374-1.123-0.91-1.464-1.608c-0.342-0.699-0.513-1.509-0.513-2.433 c0-1.435,0.369-2.554,1.104-3.359c0.736-0.806,1.773-1.208,3.112-1.208c1.28,0,2.293,0.412,3.04,1.235 C332.159,78.464,332.533,79.576,332.533,80.972 M326.093,80.972c0,2.043,0.755,3.064,2.265,3.064c1.492,0,2.239-1.021,2.239-3.064 c0-2.021-0.752-3.031-2.256-3.031c-0.789,0-1.361,0.261-1.716,0.783C326.271,79.247,326.093,79.996,326.093,80.972"></path> <path clip-path="url(#SVGID_2_)" fill="#626161" d="M340.934,85.412l-0.265-1.16h-0.096c-0.262,0.411-0.634,0.733-1.116,0.968 c-0.482,0.235-1.033,0.353-1.652,0.353c-1.072,0-1.872-0.267-2.399-0.8c-0.528-0.533-0.792-1.342-0.792-2.423v-5.786h1.896v5.457 c0,0.677,0.139,1.185,0.416,1.523s0.712,0.508,1.304,0.508c0.79,0,1.369-0.235,1.74-0.708c0.371-0.472,0.556-1.262,0.556-2.372 v-4.408h1.888v8.849H340.934z"></path> </g> </svg> 